<?xml version="1.0" encoding="UTF-8"?>
<svg width="62px" height="40px" viewBox="0 0 62 40" version="1.1" xmlns="http://www.w3.org/2000/svg" xmlns:xlink="http://www.w3.org/1999/xlink">
    <!-- Generator: Sketch 48.2 (47327) - http://www.bohemiancoding.com/sketch -->
    <title>digit-insurance-logo</title>
    <desc>Created with Sketch.</desc>
    <defs></defs>
    <g id="Page-1" stroke="none" stroke-width="1" fill="none" fill-rule="evenodd">
        <g id="digit-insurance-logo" fill-rule="nonzero">
            <path d="M15.0625767,1.71779141 L15.0625767,23.7423313 L11.190184,23.7423313 L11.190184,22.7361963 C10.0543358,23.6286173 8.64416619,24.0995411 7.2,24.0687117 C2.98159509,24.0613497 0,20.7018405 0,16.4858896 C0,12.1742331 2.98159509,8.84662577 7.19754601,8.84662577 C8.61158097,8.8199159 9.99384521,9.26742395 11.1239264,10.1177914 L11.1239264,1.71779141 L15.0625767,1.71779141 Z M11.2466258,16.4858896 C11.2466258,14.3116564 9.73742331,12.6748466 7.54110429,12.6748466 C5.42822086,12.6748466 3.92638037,14.3263804 3.92638037,16.4858896 C3.92638037,18.598773 5.43558282,20.2380368 7.53865031,20.2380368 C9.74723926,20.2380368 11.2441718,18.5865031 11.2441718,16.4858896 L11.2466258,16.4858896 Z" id="Shape" fill="#000000"></path>
            <rect id="Rectangle-path" fill="#000000" x="19.003681" y="9.17055215" width="3.93128834" height="14.5717791"></rect>
            <path d="M40.4294479,9.17055215 L40.4294479,23.3128834 C40.4294479,27.2392638 37.5067485,30.1840491 33.2319018,30.1840491 C29.9067485,30.1840491 27.3276074,28.3092025 26.4613497,25.5214724 L30.0736196,24.1693252 C30.4785276,25.5607362 31.604908,26.402454 33.2220859,26.402454 C35.1852761,26.402454 36.4883436,25.1312883 36.4883436,23.2122699 L36.4883436,22.0245399 C35.4287677,22.8630112 34.1090793,23.3040649 32.7582822,23.2711656 C28.790184,23.2711656 25.8674847,20.1226994 25.8674847,16.0957055 C25.8674847,12.0687117 28.7631902,8.86134969 32.7190184,8.86134969 C34.1077593,8.83598824 35.4596877,9.30868437 36.5300613,10.193865 L36.5300613,9.18282209 L40.4269939,9.18282209 L40.4269939,9.17055215 L40.4294479,9.17055215 Z M36.606135,16.1030675 C36.606135,14.2273323 35.0855512,12.7067485 33.209816,12.7067485 C31.3340808,12.7067485 29.8134969,14.2273323 29.8134969,16.1030675 C29.8134969,17.9788027 31.3340808,19.4993865 33.209816,19.4993865 C35.0855512,19.4993865 36.606135,17.9788027 36.606135,16.1030675 Z" id="Shape" fill="#000000"></path>
            <rect id="Rectangle-path" fill="#000000" x="44.3607362" y="9.17055215" width="3.93128834" height="14.5717791"></rect>
            <path d="M56.6527607,9.17055215 L61.2515337,9.17055215 L61.2515337,12.9006135 L56.6527607,12.9006135 L56.6527607,18.2993865 C56.6527607,19.3447853 57.3153374,20.0171779 58.3705521,20.0171779 L61.2515337,20.0171779 L61.2515337,23.7472393 L57.5460123,23.7472393 C54.7092025,23.7472393 52.7484663,21.8723926 52.7484663,19.0306748 L52.7484663,12.8957055 L50.6674847,12.8957055 L50.6674847,10.8760736 L54.4785276,6.1595092 L56.6527607,6.1595092 L56.6527607,9.17055215 Z" id="Shape" fill="#000000"></path>
            <rect id="Rectangle-path" fill="#000000" x="20.9619632" y="1.74478528" width="19.4674847" height="3.07484663"></rect>
            <polygon id="Shape" fill="#FFBB00" points="48.2944785 3.27852761 45.3226994 0 44.3607362 0 44.3607362 6.5791411 45.3128834 6.5791411"></polygon>
            <polygon id="Shape" fill="#000000" points="5.29079755 31.2147239 6.98404908 31.2147239 6.98404908 39.8552147 5.29079755 39.8552147"></polygon>
            <path d="M13.8601227,36.1276074 L13.8601227,39.8552147 L12.2503067,39.8552147 L12.2503067,36.4343558 C12.2650253,36.1369816 12.1540141,35.847125 11.944417,35.6356607 C11.7348199,35.4241964 11.4459593,35.3106188 11.1484663,35.3226994 C10.8505731,35.3123103 10.5617424,35.4260913 10.350972,35.6368616 C10.1402017,35.8476319 10.0264207,36.1364627 10.0368098,36.4343558 L10.0368098,39.8552147 L8.42699387,39.8552147 L8.42699387,33.8895706 L10.0122699,33.8895706 L10.0122699,34.2674847 C10.4370208,33.9327646 10.9635406,33.7535053 11.5042945,33.7595092 C12.135956,33.7437112 12.7462843,33.9885429 13.1919141,34.4364937 C13.6375439,34.8844445 13.8792018,35.4960364 13.8601227,36.1276074 Z" id="Shape" fill="#000000"></path>
            <path d="M17.2319018,38.5055215 C17.7521472,38.5055215 18.0711656,38.2920245 18.0711656,37.997546 C18.0711656,37.7840491 17.9067485,37.6539877 17.597546,37.607362 C17.2883436,37.5607362 16.9226994,37.5484663 16.4736196,37.4773006 C15.3496933,37.3006135 14.8392638,36.6134969 14.8392638,35.7595092 C14.8392638,34.6110429 15.7865031,33.7595092 17.195092,33.7595092 C18.603681,33.7595092 19.5509202,34.5766871 19.5631902,35.7472393 L17.9877301,35.7472393 C17.9877301,35.4282209 17.6687117,35.2269939 17.195092,35.2269939 C16.7214724,35.2269939 16.4147239,35.4404908 16.4147239,35.7177914 C16.4147239,35.9067485 16.5693252,36.0245399 16.8515337,36.0736196 C17.2319018,36.1325153 17.5141104,36.1325153 18.0122699,36.203681 C19.1239264,36.3460123 19.6466258,37.0552147 19.6466258,37.9214724 C19.6466258,39.1042945 18.6650307,39.9803681 17.2196319,39.9803681 C15.7742331,39.9803681 14.7828221,39.1411043 14.7828221,37.9435583 L16.3558282,37.9435583 C16.3558282,38.2822086 16.6871166,38.5055215 17.2319018,38.5055215 Z" id="Shape" fill="#000000"></path>
            <path d="M25.9288344,33.8895706 L25.9288344,39.8552147 L24.3435583,39.8552147 L24.3435583,39.4773006 C23.6350188,40.0390009 22.6677036,40.1461412 21.8534177,39.7531097 C21.0391317,39.3600782 20.5212502,38.5360779 20.5202454,37.6319018 L20.5202454,33.8895706 L22.1300613,33.8895706 L22.1300613,37.3251534 C22.1161423,37.6192745 22.2260358,37.905783 22.4330746,38.1151533 C22.6401134,38.3245236 22.9253733,38.4376185 23.2196319,38.4269939 C23.5145055,38.4359252 23.7999823,38.3227093 24.0085851,38.1141065 C24.2171878,37.9055038 24.3304038,37.620027 24.3214724,37.3251534 L24.3214724,33.8895706 L25.9288344,33.8895706 Z" id="Shape" fill="#000000"></path>
            <path d="M30.9570552,33.8895706 L30.9570552,35.4748466 L30.0809816,35.4748466 C29.7514255,35.4710613 29.4349354,35.6035402 29.2063444,35.8409589 C28.9777533,36.0783777 28.8573559,36.3996581 28.8736196,36.7288344 L28.8736196,39.8527607 L27.2638037,39.8527607 L27.2638037,33.8895706 L28.8368098,33.8895706 L28.8368098,34.4809816 C29.1906851,34.0708379 29.7172917,33.8516459 30.2576687,33.8895706 L30.9570552,33.8895706 Z" id="Shape" fill="#000000"></path>
            <path d="M36.3533742,36.0736196 L36.3533742,39.8503067 L34.7803681,39.8503067 L34.7803681,39.4822086 C34.4122699,39.8257669 33.9411043,39.9730061 33.2785276,39.9730061 C32.0515337,39.9730061 31.207362,39.202454 31.207362,38.1153374 C31.207362,36.9079755 32.1055215,36.3631902 33.2785276,36.2699387 L34.7803681,36.1398773 L34.7803681,36.0343558 C34.7803681,35.5852761 34.3533742,35.2539877 33.8208589,35.2539877 C33.3300613,35.2539877 32.9693252,35.4993865 32.8858896,35.8699387 L31.3472393,35.8699387 C31.4306748,34.6429448 32.4368098,33.7521472 33.8208589,33.7521472 C35.3226994,33.7595092 36.3533742,34.7411043 36.3533742,36.0736196 Z M34.7803681,37.7546012 L34.7803681,37.3276074 L33.5386503,37.4331288 C33.0184049,37.4797546 32.802454,37.7177914 32.802454,38.0490798 C32.802454,38.3803681 33.0993865,38.6527607 33.6441718,38.6527607 C34.3411043,38.6601227 34.7779141,38.3165644 34.7779141,37.7595092 L34.7803681,37.7546012 Z" id="Shape" fill="#000000"></path>
            <path d="M43.0846626,36.1276074 L43.0846626,39.8552147 L41.4723926,39.8552147 L41.4723926,36.4343558 C41.4871112,36.1369816 41.3760999,35.847125 41.1665029,35.6356607 C40.9569058,35.4241964 40.6680452,35.3106188 40.3705521,35.3226994 C40.072659,35.3123103 39.7838283,35.4260913 39.5730579,35.6368616 C39.3622876,35.8476319 39.2485066,36.1364627 39.2588957,36.4343558 L39.2588957,39.8552147 L37.6490798,39.8552147 L37.6490798,33.8895706 L39.2343558,33.8895706 L39.2343558,34.2674847 C39.6591066,33.9327646 40.1856265,33.7535053 40.7263804,33.7595092 C41.3584623,33.7430249 41.9694396,33.9875537 42.4156115,34.4355826 C42.8617833,34.8836116 43.1037722,35.4955994 43.0846626,36.1276074 Z" id="Shape" fill="#000000"></path>
            <path d="M47.0723926,33.7595092 C48.109448,33.7374465 49.0830825,34.2572762 49.6417178,35.1312883 L48.3435583,36.0441718 C47.9755834,35.4680427 47.2716119,35.2037855 46.6154179,35.3954616 C45.959224,35.5871377 45.5081833,36.1887771 45.5081833,36.8723926 C45.5081833,37.5560082 45.959224,38.1576476 46.6154179,38.3493237 C47.2716119,38.5409998 47.9755834,38.2767426 48.3435583,37.7006135 L49.6466258,38.6110429 C49.0879905,39.4850551 48.114356,40.0048848 47.0773006,39.9828221 C45.3581026,39.9828221 43.9644172,38.5891367 43.9644172,36.8699387 C43.9644172,35.1507406 45.3581026,33.7570552 47.0773006,33.7570552 L47.0723926,33.7595092 Z" id="Shape" fill="#000000"></path>
            <path d="M55.8993865,37.4871166 L51.6269939,37.4871166 C51.8462733,38.1058051 52.4435859,38.5089911 53.0993865,38.4809816 C53.6401079,38.4867761 54.1437956,38.2069496 54.4245399,37.7447853 L55.7276074,38.5374233 C54.9853045,39.701689 53.5649743,40.2381353 52.2383406,39.8552889 C50.911707,39.4724425 49.9955804,38.2617301 49.9877301,36.8809816 C49.9877301,35.1067485 51.2147239,33.7570552 52.9815951,33.7570552 C54.7484663,33.7570552 55.9509202,35.0920245 55.9509202,36.8613497 C55.9514538,37.07102 55.9342142,37.2803583 55.8993865,37.4871166 Z M51.590184,36.2601227 L54.3484663,36.2601227 C54.2076662,35.6328395 53.6274651,35.2042225 52.9865031,35.2539877 C52.2699387,35.2515337 51.7570552,35.607362 51.592638,36.2576687 L51.590184,36.2601227 Z" id="Shape" fill="#000000"></path>
        </g>
    </g>
</svg>